<?xml version="1.0" encoding="UTF-8"?>
<svg width="40" height="40" viewBox="0 0 40 40" fill="none" xmlns="http://www.w3.org/2000/svg">
  <circle cx="20" cy="20" r="20" fill="#07C160"/>
  <path d="M26.5 16.5c1.5 0 2.7 1.2 2.7 2.7s-1.2 2.7-2.7 2.7-2.7-1.2-2.7-2.7 1.2-2.7 2.7-2.7zm-13 0c1.5 0 2.7 1.2 2.7 2.7s-1.2 2.7-2.7 2.7-2.7-1.2-2.7-2.7 1.2-2.7 2.7-2.7z" fill="white"/>
  <path d="M32 12H8C5.8 12 4 13.8 4 16v8c0 2.2 1.8 4 4 4h24c2.2 0 4-1.8 4-4v-8c0-2.2-1.8-4-4-4zm-1 16c-.8.4-2.2.6-3.1.7-.9.1-2.5.1-4.2.1-1.1 0-2.6-.1-3.6-.2-1.4-.1-3.3-.2-4.5-.6-2.9-.8-5.3-2.4-6.4-5.1-.7-2.9-1-6.3-1.4-8.6-.2-1-.4-1.9-.6-3-.8-6.2.5-12.3 5.9-12.9 2.5-.3 5.2 0 7.3 1 2.3.7 4.4.1 7.9.8 2.1.4 3.9 1.6 5.2 3 1.4 1.9 2.1 4.3 1.6 6.6-.1.6-.4 1.6-1.5.3z" fill="white"/>
</svg>
